<?xml version="1.0" encoding="utf-8"?>
<!-- Generator: Adobe Illustrator 19.0.0, SVG Export Plug-In . SVG Version: 6.00 Build 0)  -->
<svg version="1.1" id="Layer_1" xmlns="http://www.w3.org/2000/svg" xmlns:xlink="http://www.w3.org/1999/xlink" x="0px" y="0px"
	 viewBox="0 0 300 81.3" style="enable-background:new 0 0 300 81.3;" xml:space="preserve">
<style type="text/css">
	.st0{fill:#FF69B4;}
	.st1{fill:#009CDE;}
	.st2{fill:#003087;}
	.st3{fill:#FFFFFF;}
	.st4{font-family:'Montserrat-Bold';}
	.st5{font-size:29.3123px;}
	.st6{font-size:12px;}
</style>
<rect id="XMLID_28_" class="st0" width="300" height="50"/>
<g id="XMLID_1_">
	<path id="XMLID_12_" class="st1" d="M266.1,55h-7.2c-0.5,0-0.9,0.4-1,0.8l-2.9,18.5c-0.1,0.4,0.2,0.7,0.6,0.7h3.7
		c0.3,0,0.6-0.3,0.7-0.6l0.8-5.3c0.1-0.5,0.5-0.8,1-0.8h2.3c4.8,0,7.5-2.3,8.2-6.9c0.3-2,0-3.6-0.9-4.7
		C270.3,55.6,268.5,55,266.1,55L266.1,55z M266.9,61.8c-0.4,2.6-2.4,2.6-4.3,2.6h-1.1l0.8-4.8c0-0.3,0.3-0.5,0.6-0.5h0.5
		c1.3,0,2.5,0,3.2,0.7C266.9,60.2,267.1,60.8,266.9,61.8L266.9,61.8z"/>
	<path id="XMLID_7_" class="st2" d="M214.5,55h-7.2c-0.5,0-0.9,0.4-1,0.8l-2.9,18.5c-0.1,0.4,0.2,0.7,0.6,0.7h3.5
		c0.5,0,0.9-0.4,1-0.8l0.8-5c0.1-0.5,0.5-0.8,1-0.8h2.3c4.8,0,7.5-2.3,8.2-6.9c0.3-2,0-3.6-0.9-4.7C218.7,55.6,216.9,55,214.5,55
		L214.5,55z M215.3,61.8c-0.4,2.6-2.4,2.6-4.3,2.6h-1.1l0.8-4.8c0-0.3,0.3-0.5,0.6-0.5h0.5c1.3,0,2.5,0,3.2,0.7
		C215.3,60.2,215.5,60.8,215.3,61.8L215.3,61.8z M236.1,61.7h-3.5c-0.3,0-0.5,0.2-0.6,0.5l-0.2,1l-0.2-0.4c-0.8-1.1-2.4-1.5-4.1-1.5
		c-3.8,0-7.1,2.9-7.7,7c-0.3,2,0.1,4,1.3,5.3c1.1,1.2,2.6,1.8,4.4,1.8c3.1,0,4.8-2,4.8-2l-0.2,1c-0.1,0.4,0.2,0.7,0.6,0.7h3.1
		c0.5,0,0.9-0.4,1-0.8l1.9-11.9C236.8,62,236.5,61.7,236.1,61.7L236.1,61.7z M231.3,68.4c-0.3,2-1.9,3.3-3.9,3.3
		c-1,0-1.8-0.3-2.3-0.9c-0.5-0.6-0.7-1.5-0.5-2.4c0.3-2,1.9-3.3,3.9-3.3c1,0,1.8,0.3,2.3,0.9C231.2,66.6,231.4,67.5,231.3,68.4
		L231.3,68.4z"/>
	<path id="XMLID_4_" class="st1" d="M287.7,61.7h-3.5c-0.3,0-0.5,0.2-0.6,0.5l-0.2,1l-0.2-0.4c-0.8-1.1-2.4-1.5-4.1-1.5
		c-3.8,0-7.1,2.9-7.7,7c-0.3,2,0.1,4,1.3,5.3c1.1,1.2,2.6,1.8,4.4,1.8c3.1,0,4.8-2,4.8-2l-0.2,1c-0.1,0.4,0.2,0.7,0.6,0.7h3.1
		c0.5,0,0.9-0.4,1-0.8l1.9-11.9C288.4,62,288.1,61.7,287.7,61.7L287.7,61.7z M282.9,68.4c-0.3,2-1.9,3.3-3.9,3.3
		c-1,0-1.8-0.3-2.3-0.9c-0.5-0.6-0.7-1.5-0.5-2.4c0.3-2,1.9-3.3,3.9-3.3c1,0,1.8,0.3,2.3,0.9C282.8,66.6,283,67.5,282.9,68.4
		L282.9,68.4z"/>
	<path id="XMLID_3_" class="st2" d="M254.6,61.7h-3.5c-0.3,0-0.6,0.2-0.8,0.4l-4.8,7.1l-2-6.8c-0.1-0.4-0.5-0.7-1-0.7H239
		c-0.4,0-0.7,0.4-0.6,0.8l3.8,11.3l-3.6,5.1c-0.3,0.4,0,1,0.5,1h3.5c0.3,0,0.6-0.2,0.8-0.4l11.6-16.7
		C255.3,62.2,255,61.7,254.6,61.7L254.6,61.7z"/>
	<path id="XMLID_2_" class="st1" d="M291.8,55.5l-3,18.9c-0.1,0.4,0.2,0.7,0.6,0.7h3c0.5,0,0.9-0.4,1-0.9l2.9-18.5
		c0.1-0.4-0.2-0.7-0.6-0.7h-3.3C292.1,55,291.8,55.2,291.8,55.5L291.8,55.5z"/>
</g>
<g id="XMLID_15_">
	<g id="XMLID_16_">
		<g id="XMLID_22_">
			<path id="XMLID_25_" class="st2" d="M38.9,27.1l1.7-6.5H26.4L26,18.5c-0.2-0.8-0.9-1.4-1.7-1.4h-2.4v1.5h2.4
				c0.1,0,0.1,0.1,0.2,0.2L27,30.3c0.2,0.8,0.9,1.4,1.7,1.4h10.2v-1.5H28.6c-0.1,0-0.2-0.1-0.2-0.2l-0.3-1.2l9.7-0.9
				C38.4,27.8,38.8,27.6,38.9,27.1z"/>
			<path id="XMLID_24_" class="st2" d="M29.5,32.1c-0.8,0-1.5,0.7-1.5,1.5c0,0.8,0.7,1.5,1.5,1.5c0.8,0,1.5-0.7,1.5-1.5
				C31,32.8,30.3,32.1,29.5,32.1z"/>
			<path id="XMLID_23_" class="st2" d="M36.6,32.1c-0.8,0-1.5,0.7-1.5,1.5c0,0.8,0.7,1.5,1.5,1.5c0.8,0,1.5-0.7,1.5-1.5
				C38.1,32.8,37.4,32.1,36.6,32.1z"/>
		</g>
		<g id="XMLID_17_">
			<g id="XMLID_18_">
				<path id="XMLID_19_" class="st3" d="M32.4,44.7c-5.3,0-10.2-2-13.9-5.8c-3.7-3.7-5.8-8.7-5.8-13.9s2-10.2,5.8-13.9
					c3.7-3.7,8.7-5.8,13.9-5.8s10.2,2,13.9,5.8c3.7,3.7,5.8,8.7,5.8,13.9s-2,10.2-5.8,13.9C42.6,42.6,37.6,44.7,32.4,44.7z
					 M32.4,6.5c-5,0-9.6,1.9-13.1,5.4c-3.5,3.5-5.4,8.2-5.4,13.1s1.9,9.6,5.4,13.1c3.5,3.5,8.2,5.4,13.1,5.4s9.6-1.9,13.1-5.4
					C49,34.6,50.9,30,50.9,25s-1.9-9.6-5.4-13.1C42,8.4,37.3,6.5,32.4,6.5z"/>
			</g>
		</g>
	</g>
</g>
<text id="XMLID_26_" transform="matrix(1 0 0 1 70.7545 34.7864)" class="st3 st4 st5">ADD TO CART</text>
<text id="XMLID_29_" transform="matrix(1 0 0 1 172.969 71.0396)" class="st4 st6">with</text>
</svg>
