<?xml version="1.0" encoding="utf-8"?>
<!-- Generator: Adobe Illustrator 20.0.0, SVG Export Plug-In . SVG Version: 6.00 Build 0)  -->
<svg version="1.1" id="Layer_1" xmlns="http://www.w3.org/2000/svg" xmlns:xlink="http://www.w3.org/1999/xlink" x="0px" y="0px"
	 viewBox="0 0 497 30.2" style="enable-background:new 0 0 497 30.2;" xml:space="preserve">
<g>
	<path d="M0,1.2h6.3v28.3H0V1.2z"/>
	<path d="M33,1.2h6.3v28.3H33L19.6,11.7v17.7h-6.3V1.2h5.9L33,19.4V1.2z"/>
	<path d="M52.9,6.8C52.3,7.3,52,8,52,8.8c0,0.8,0.4,1.5,1.1,2c0.7,0.5,2.5,1.1,5.1,1.7c2.7,0.7,4.8,1.7,6.2,3
		c1.5,1.3,2.2,3.2,2.2,5.8c0,2.5-0.9,4.6-2.8,6.2c-1.9,1.6-4.4,2.4-7.5,2.4c-4.5,0-8.5-1.7-12.1-5l3.8-4.6c3,2.7,5.9,4,8.4,4
		c1.2,0,2.1-0.2,2.7-0.7c0.7-0.5,1-1.2,1-2c0-0.8-0.4-1.5-1.1-2c-0.7-0.5-2.1-1-4.2-1.5c-3.3-0.8-5.7-1.8-7.2-3.1
		c-1.5-1.3-2.3-3.2-2.3-5.9c0-2.7,1-4.7,2.9-6.2c1.9-1.5,4.3-2.2,7.2-2.2c1.9,0,3.8,0.3,5.7,1c1.9,0.6,3.5,1.6,4.9,2.7L63,8.8
		c-2.5-1.9-5-2.8-7.6-2.8C54.3,6.1,53.5,6.3,52.9,6.8z"/>
	<path d="M72.1,1.2h6.3v28.3h-6.3V1.2z"/>
	<path d="M106.9,4.9c2.7,2.5,4,5.9,4,10.3s-1.3,7.9-3.9,10.4c-2.6,2.6-6.6,3.8-12,3.8h-9.7V1.2h10C100.3,1.2,104.2,2.4,106.9,4.9z
		 M102.3,21.7c1.5-1.5,2.3-3.6,2.3-6.3s-0.8-4.9-2.3-6.4c-1.5-1.5-3.9-2.2-7.1-2.2h-3.5v17.2h4C98.5,23.8,100.7,23.1,102.3,21.7z"/>
	<path d="M136.8,1.2v5.6h-14.1v5.8h12.7V18h-12.7v5.9h14.5v5.6h-20.8V1.2H136.8z"/>
	<path d="M153.5,1.2h6.3v11.6l10.7-11.6h7.8L167,13.7c1,1.3,2.8,3.9,5.4,7.5c2.6,3.7,4.6,6.4,5.9,8.2h-7.4l-8.3-11.2l-2.8,3.2v8
		h-6.3V1.2z"/>
	<path d="M202.6,1.2v5.6h-14.1v5.8h12.7V18h-12.7v5.9H203v5.6h-20.8V1.2H202.6z"/>
	<path d="M208.6,29.4V1.2h6.3v22.6h12v5.6H208.6z"/>
	<path d="M231.6,29.4V1.2h6.3v22.6h12v5.6H231.6z"/>
	<path d="M264.3,29.4h-6.3V18.3l-9.8-17.1h6.8l6.1,10.5l6.1-10.5h6.8l-9.8,17.1V29.4z"/>
	<path d="M276.5,7.1c-0.9-0.6-1.3-1.4-1.3-2.5c0-1.1,0.3-1.9,1-2.5c0.6-0.6,1.4-0.9,2.4-0.9c1,0,1.8,0.3,2.4,0.9
		c0.6,0.6,0.9,1.4,0.9,2.3c0,0.9-0.3,1.9-0.9,2.8l-3,4.3h-3.3L276.5,7.1z"/>
	<path d="M301.7,22.7c0,2.1-0.8,3.9-2.4,5.2s-3.6,1.9-6,1.9c-1.6,0-3.3-0.3-5.1-0.9c-1.8-0.6-3.3-1.4-4.7-2.6l2.7-3.8
		c2.3,1.8,4.7,2.6,7.2,2.6c0.8,0,1.4-0.2,1.9-0.5c0.5-0.3,0.7-0.7,0.7-1.2c0-0.5-0.3-1-0.9-1.4c-0.6-0.4-1.5-0.8-2.7-1.2
		c-1.2-0.4-2.1-0.7-2.7-1c-0.6-0.3-1.4-0.7-2.2-1.2c-1.6-1-2.5-2.5-2.5-4.5s0.8-3.6,2.4-4.9c1.6-1.3,3.7-1.9,6.3-1.9
		s5.1,0.9,7.7,2.6l-2.3,4c-1.9-1.3-3.8-1.9-5.6-1.9c-1.9,0-2.8,0.5-2.8,1.5c0,0.6,0.3,1,0.9,1.3c0.6,0.3,1.6,0.7,3,1.1
		c1.4,0.4,2.4,0.8,2.9,1c0.6,0.2,1.3,0.6,2.1,1.1C300.9,19,301.7,20.5,301.7,22.7z"/>
	<path d="M317.6,1.2h6.3v11.6l10.7-11.6h7.8l-11.2,12.5c1,1.3,2.8,3.9,5.4,7.5s4.6,6.4,5.9,8.2H335l-8.3-11.2l-2.8,3.2v8h-6.3V1.2z"
		/>
	<path d="M346.3,1.2h6.3v28.3h-6.3V1.2z"/>
	<path d="M371.5,6.6v22.8h-6.3V6.6h-8V1.2h22.3v5.5H371.5z"/>
	<path d="M397.1,23.8c3.1,0,5.6-1.2,7.6-3.7l4,4.2c-3.2,3.6-7,5.4-11.3,5.4c-4.4,0-7.9-1.4-10.8-4.1s-4.2-6.2-4.2-10.4
		s1.4-7.7,4.3-10.5c2.9-2.8,6.4-4.2,10.5-4.2c4.6,0,8.5,1.8,11.6,5.3l-3.9,4.4c-2-2.5-4.5-3.7-7.4-3.7c-2.4,0-4.4,0.8-6.1,2.3
		c-1.7,1.5-2.5,3.6-2.5,6.3c0,2.6,0.8,4.7,2.4,6.3C392.9,23,394.8,23.8,397.1,23.8z"/>
	<path d="M431.3,1.2h6.3v28.3h-6.3V18.3H420v11.1h-6.3V1.2h6.3V13h11.2V1.2z"/>
	<path d="M464.9,1.2v5.6h-14.1v5.8h12.7V18h-12.7v5.9h14.5v5.6h-20.8V1.2H464.9z"/>
	<path d="M490.7,1.2h6.3v28.3h-6.3l-13.5-17.7v17.7H471V1.2h5.9l13.9,18.2V1.2z"/>
</g>
</svg>
